<?xml version="1.0" encoding="utf-8"?>
<!-- Generator: Adobe Illustrator 25.2.0, SVG Export Plug-In . SVG Version: 6.00 Build 0)  -->
<svg version="1.1" id="Layer_1" xmlns="http://www.w3.org/2000/svg" xmlns:xlink="http://www.w3.org/1999/xlink" x="0px" y="0px"
	 viewBox="0 0 1920 1080" style="enable-background:new 0 0 1920 1080;" xml:space="preserve">
<style type="text/css">
	.st0{font-family:'Mermaid-Bold';}
	.st1{font-size:109.1674px;}
</style>
<g>
	<path d="M1110.5,731.56c0-6.82-0.48-12.67,0.23-18.37c0.29-2.33,2.8-4.83,4.92-6.43c54.57-41.32,89.06-95.27,102.63-162.48
		c28.17-139.49-66.81-280.73-206.7-307.35c-147.27-28.02-286.65,67-310.64,214.97c-16.44,101.41,18.5,185.39,98.04,250.3
		c7.82,6.38,12.17,12.24,10.56,22.15c-0.34,2.11-0.05,4.32-0.05,6.73C735.41,688.63,663.45,583.54,681.75,455
		c18.94-133.06,128.41-232.93,263.43-240.9c131.84-7.78,252.62,79.84,286.51,209.09C1266.14,554.56,1201.95,675.66,1110.5,731.56z"
		/>
	<path d="M762.91,507.86c12.13,3.83,14.22-4.14,17.17-11.85c10.84-28.32,21.98-56.53,33.05-84.77c1.23-3.15,1.95-5.53-0.31-9.2
		c-1.64-2.65-1.02-8.55,1-11.09c2.01-2.53,8.29-4.82,10.51-3.51c16.58,9.81,35.05,2.6,52.15,6.58c1.63,0.38,3.76-0.64,5.46-1.43
		c12.03-5.62,24.3-9.46,37.95-8.03c4.08,0.42,8.41-1.91,12.66-2.77c13.3-2.67,16.77-0.01,21.45,12.7
		c7.44,20.23,14.64,40.67,23.91,60.08c11.96,25.04,13.06,50.56,7.07,76.73c-10.47,45.72-10.82,91.92-8.2,138.38
		c0.36,6.36,3.09,9.23,9.1,9.91c3.6,0.41,7.55,0.45,10.64,2.03c3.4,1.74,6,5.05,8.96,7.68c-0.46,0.69-0.91,1.39-1.37,2.08
		c-28.7,0-57.4,0-86.7,0c-0.82-5.04,1.95-8.05,6.34-9.49c3.88-1.27,8.01-2,12.09-2.41c5.87-0.59,8.02-3.25,8.4-9.35
		c3.14-50.52,0.51-100.34-14.15-149.25c-5.74-19.17-7.66-39.08-2.47-59c0.29-1.13,0.74-2.21,1.64-4.82
		c11.23,16.57,21.76,32.09,32.29,47.62c0.28-0.12,0.56-0.24,0.84-0.37c-0.44-1.45-0.7-2.99-1.35-4.33
		c-9.01-18.55-18.31-36.97-26.98-55.68c-2.92-6.3-4.46-13.27-6.29-20.03c-3.49-12.85-8.12-17.41-21.04-16.08
		c-18.86,1.95-37.23-0.17-55.7-3.22c-6.15-1.02-12.52-0.7-20.11-1.05c1.17,3.45,1.9,5.83,2.79,8.15
		c10.88,28.57,21.93,57.08,32.6,85.73c2.63,7.07,4.96,13.41,15.31,10.03c-0.22,18.97-7.49,33.38-21.52,44
		c-19.97,15.12-41.99,17.31-64.5,6.65C775.29,548.87,764.65,532.09,762.91,507.86z M785.37,507.98c11.92,0,22.5,0,33.39,0
		c0-27.73,0-55.03,0-82.34c-0.38-0.07-0.77-0.14-1.15-0.2C806.98,452.66,796.35,479.87,785.37,507.98z M860.33,508.03
		c-10.3-26.91-20.21-52.78-30.11-78.66c-0.42,0.11-0.83,0.23-1.25,0.34c0,25.98,0,51.96,0,78.31
		C839.32,508.03,849.18,508.03,860.33,508.03z"/>
	<path d="M1103.84,741.81c-96.04,0-191.31,0-286.95,0c0-9.65-0.72-19.08,0.22-28.34c0.79-7.74,8.23-13.59,16.17-14.55
		c2.88-0.35,5.81-0.28,8.72-0.28c78.89-0.01,157.77-0.01,236.66-0.01c18.7,0,25.18,6.57,25.19,25.48
		C1103.85,729.87,1103.84,735.63,1103.84,741.81z"/>
	<path d="M1155.72,509c1.35,29.55-26.14,55.61-58.43,55.74c-32.86,0.14-60.18-25.41-59.18-55.33c0.37-0.29,0.81-0.88,1.12-0.81
		c8.96,1.88,11.83-3.42,14.59-10.78c10.75-28.63,22.12-57.02,33.24-85.51c0.87-2.22,1.6-4.5,3.07-8.65
		c-10.38,0.87-19.75,0.86-28.78,2.59c-14.46,2.78-28.78,3.25-43.42,1.96c-16.73-1.48-21.43,2.6-25.15,19.15
		c-1.04,4.63-2.29,9.21-3.79,15.22c-2.79-2.48-4.64-3.64-5.82-5.27c-10.31-14.18-13.78-29.72-9.05-46.85
		c1.78-6.46,6.31-9.17,12.54-8.67c10.07,0.8,20.1,2.06,30.14,3.2c1.92,0.22,4.04,0.34,5.67,1.24c14.19,7.84,29.54,7.05,44.98,6.83
		c9.08-0.13,17.81-0.1,26.09-4.79c4.67-2.65,10.15-2.83,13.88,2.01c3.37,4.38,3.96,9.12-0.08,13.94c-0.97,1.16-0.65,4.07,0.01,5.81
		c11.77,31.1,23.95,62.04,35.38,93.26C1145.4,510.61,1150.92,507.35,1155.72,509z M1093.43,425.8c-0.5-0.08-0.99-0.17-1.49-0.25
		c-10.66,27.32-21.31,54.64-32.06,82.18c11.91,0,22.64,0,33.55,0C1093.43,479.96,1093.43,452.88,1093.43,425.8z M1134.71,508.04
		c-10.27-26.83-20.22-52.82-30.17-78.8c-0.42,0.14-0.84,0.28-1.25,0.42c0,26.01,0,52.02,0,78.39
		C1113.64,508.04,1123.51,508.04,1134.71,508.04z"/>
	<path d="M990.37,345.31c0.08,16.28-11.75,28.98-27.09,29.06c-15.33,0.09-27.4-12.55-27.47-28.74
		c-0.07-16.18,11.9-29.01,27.16-29.12C978.25,316.4,990.29,329.06,990.37,345.31z"/>
</g>
<text transform="matrix(1 0 0 1 678.8656 850.8203)" class="st0 st1">Hukamdeen</text>
</svg>
